<svg width="412" height="175" viewBox="0 0 412 175" fill="none" xmlns="http://www.w3.org/2000/svg">
<g clip-path="url(#clip0_712_2966)">
<path d="M342.637 98.5363L345.111 91.1389C347.079 85.2531 351.305 80.3903 356.858 77.6201C362.412 74.85 368.838 74.3994 374.724 76.3675C380.61 78.3356 385.472 82.5612 388.243 88.1147C391.013 93.6682 391.463 100.095 389.495 105.98L387.022 113.378L390.72 114.615C392.682 115.271 394.303 116.679 395.227 118.53C396.15 120.381 396.3 122.524 395.644 124.486L385.75 154.075C385.094 156.037 383.685 157.658 381.834 158.581C379.983 159.505 377.841 159.655 375.879 158.999L324.097 141.684C322.135 141.028 320.514 139.619 319.591 137.768C318.667 135.917 318.517 133.775 319.173 131.813L329.068 102.223C330.428 98.1547 334.87 95.939 338.939 97.2995L342.637 98.5363ZM352.807 129.612L350 138.008L357.397 140.482L360.205 132.086C361.887 131.743 363.409 130.855 364.536 129.559C365.662 128.263 366.329 126.631 366.434 124.918C366.538 123.204 366.074 121.503 365.114 120.08C364.153 118.657 362.75 117.59 361.122 117.046C359.493 116.501 357.731 116.509 356.107 117.068C354.484 117.628 353.09 118.707 352.143 120.139C351.195 121.571 350.747 123.276 350.867 124.988C350.987 126.701 351.669 128.327 352.807 129.612ZM356.207 94.8493L353.733 102.247L375.926 109.667L378.399 102.27C379.383 99.3271 379.158 96.1139 377.773 93.3371C376.388 90.5604 373.956 88.4476 371.013 87.4635C368.071 86.4795 364.857 86.7048 362.081 88.0899C359.304 89.475 357.191 91.9064 356.207 94.8493Z" fill="url(#paint0_linear_712_2966)"/>
</g>
<g clip-path="url(#clip1_712_2966)">
<path d="M29.4588 116.916L25.4354 110.234C22.2342 104.917 21.2761 98.5468 22.772 92.5237C24.2678 86.5006 28.0951 81.3185 33.4118 78.1172C38.7285 74.916 45.0991 73.9579 51.1222 75.4538C57.1453 76.9496 62.3275 80.7769 65.5287 86.0936L69.5521 92.7758L72.8932 90.7641C74.6655 89.697 76.789 89.3776 78.7967 89.8763C80.8044 90.3749 82.5318 91.6506 83.5989 93.4229L99.6926 120.152C100.76 121.924 101.079 124.047 100.58 126.055C100.082 128.063 98.8061 129.79 97.0338 130.857L50.2583 159.021C48.4861 160.088 46.3625 160.408 44.3548 159.909C42.3471 159.411 40.6198 158.135 39.5527 156.363L23.459 129.634C21.2461 125.959 22.4425 121.141 26.1177 118.928L29.4588 116.916ZM59.7032 129.343L64.2698 136.928L70.952 132.904L66.3854 125.32C67.2165 123.817 67.5286 122.083 67.2732 120.385C67.0179 118.687 66.2094 117.121 64.9731 115.929C63.7369 114.737 62.142 113.987 60.4358 113.794C58.7296 113.601 57.0075 113.977 55.5365 114.863C54.0655 115.748 52.9279 117.095 52.3001 118.693C51.6722 120.291 51.5893 122.052 52.0641 123.702C52.5389 125.352 53.5449 126.799 54.9261 127.819C56.3073 128.839 57.9865 129.375 59.7032 129.343ZM35.4587 104.199L39.4822 110.881L59.5288 98.8109L55.5054 92.1287C53.9048 89.4704 51.3137 87.5567 48.3021 86.8088C45.2906 86.0609 42.1053 86.5399 39.4469 88.1405C36.7886 89.7412 34.8749 92.3322 34.127 95.3438C33.3791 98.3553 33.8581 101.541 35.4587 104.199Z" fill="url(#paint1_linear_712_2966)"/>
</g>
<g clip-path="url(#clip2_712_2966)">
<path d="M210 30.0505L157.021 79.5455H127L210 0L292.117 79.5455H262.096L210 30.0505Z" fill="#163C3F"/>
<path d="M209.117 144.949L262.096 95.4541H292.117L209.117 175L127 95.4541H157.021L209.117 144.949Z" fill="#163C3F"/>
<path d="M197.638 60.9844L182.627 75.1258L197.638 90.151L212.648 75.1258L197.638 60.9844Z" fill="#F1C200" stroke="#100F0F"/>
<path d="M221.479 84.8486L206.469 98.99L221.479 114.015L236.49 98.99L221.479 84.8486Z" fill="#F1C200" stroke="#100F0F"/>
</g>
<defs>
<linearGradient id="paint0_linear_712_2966" x1="374.724" y1="76.3675" x2="349.988" y2="150.341" gradientUnits="userSpaceOnUse">
<stop stop-color="#6B000C"/>
<stop offset="0.525" stop-color="#87000F"/>
<stop offset="1" stop-color="#D10017"/>
</linearGradient>
<linearGradient id="paint1_linear_712_2966" x1="33.4118" y1="78.1172" x2="73.6461" y2="144.939" gradientUnits="userSpaceOnUse">
<stop stop-color="#6B000C"/>
<stop offset="0.525" stop-color="#87000F"/>
<stop offset="1" stop-color="#D10017"/>
</linearGradient>
<clipPath id="clip0_712_2966">
<rect width="78" height="78" fill="white" transform="translate(337.736 64) rotate(18.4892)"/>
</clipPath>
<clipPath id="clip1_712_2966">
<rect width="78" height="78" fill="white" transform="translate(0 98.2344) rotate(-31.0526)"/>
</clipPath>
<clipPath id="clip2_712_2966">
<rect width="166" height="175" fill="white" transform="translate(127)"/>
</clipPath>
</defs>
</svg>
