<svg width="25" height="24" viewBox="0 0 25 24" fill="none" xmlns="http://www.w3.org/2000/svg">
<path d="M4.625 21C3.92881 21 3.26113 20.7234 2.76884 20.2312C2.27656 19.7389 2 19.0712 2 18.375V14.625C2 14.3266 2.11853 14.0405 2.3295 13.8295C2.54048 13.6185 2.82663 13.5 3.125 13.5C3.42337 13.5 3.70952 13.6185 3.9205 13.8295C4.13147 14.0405 4.25 14.3266 4.25 14.625V18.375C4.25 18.582 4.418 18.75 4.625 18.75H20.375C20.4745 18.75 20.5698 18.7105 20.6402 18.6402C20.7105 18.5698 20.75 18.4745 20.75 18.375V14.625C20.75 14.3266 20.8685 14.0405 21.0795 13.8295C21.2905 13.6185 21.5766 13.5 21.875 13.5C22.1734 13.5 22.4595 13.6185 22.6705 13.8295C22.8815 14.0405 23 14.3266 23 14.625V18.375C23 19.0712 22.7234 19.7389 22.2312 20.2312C21.7389 20.7234 21.0712 21 20.375 21H4.625Z" fill="#FFFFFE"/>
<path d="M11.3753 11.5335V3C11.3753 2.70163 11.4938 2.41548 11.7048 2.2045C11.9158 1.99353 12.2019 1.875 12.5003 1.875C12.7986 1.875 13.0848 1.99353 13.2958 2.2045C13.5067 2.41548 13.6253 2.70163 13.6253 3V11.5335L16.5803 8.58C16.6847 8.4756 16.8086 8.39278 16.945 8.33628C17.0814 8.27978 17.2276 8.2507 17.3753 8.2507C17.5229 8.2507 17.6691 8.27978 17.8055 8.33628C17.9419 8.39278 18.0659 8.4756 18.1703 8.58C18.2747 8.6844 18.3575 8.80834 18.414 8.94475C18.4705 9.08116 18.4996 9.22736 18.4996 9.375C18.4996 9.52264 18.4705 9.66884 18.414 9.80525C18.3575 9.94166 18.2747 10.0656 18.1703 10.17L13.2953 15.045C13.1909 15.1495 13.067 15.2324 12.9306 15.289C12.7942 15.3455 12.648 15.3746 12.5003 15.3746C12.3526 15.3746 12.2064 15.3455 12.07 15.289C11.9335 15.2324 11.8096 15.1495 11.7053 15.045L6.83028 10.17C6.72588 10.0656 6.64306 9.94166 6.58656 9.80525C6.53006 9.66884 6.50098 9.52264 6.50098 9.375C6.50098 9.22736 6.53006 9.08116 6.58656 8.94475C6.64306 8.80834 6.72588 8.6844 6.83028 8.58C6.93468 8.4756 7.05862 8.39278 7.19503 8.33628C7.33143 8.27978 7.47763 8.2507 7.62528 8.2507C7.77292 8.2507 7.91912 8.27978 8.05553 8.33628C8.19193 8.39278 8.31588 8.4756 8.42028 8.58L11.3753 11.5335Z" fill="#FFFFFE"/>
</svg>
