<svg width="25" height="24" viewBox="0 0 25 24" fill="none" xmlns="http://www.w3.org/2000/svg">
<path opacity="0.7" d="M12.3725 5.97704C13.7941 5.95319 15.1677 6.49071 16.1955 7.47304L19.0635 4.60504C17.2536 2.90481 14.8557 1.97125 12.3725 2.00004C10.5184 1.99927 8.70066 2.51419 7.1224 3.48724C5.54415 4.46029 4.26763 5.85313 3.43555 7.51004L6.77655 10.1C7.16078 8.91379 7.90739 7.87793 8.91127 7.13829C9.91514 6.39866 11.1257 5.99252 12.3725 5.97704Z" fill="#FFFFFE"/>
<path d="M3.43618 7.51001C2.73709 8.9035 2.37305 10.441 2.37305 12C2.37305 13.559 2.73709 15.0965 3.43618 16.49L6.77718 13.9C6.35908 12.6678 6.35908 11.3322 6.77718 10.1L3.43618 7.51001Z" fill="#FFFFFE"/>
<path opacity="0.5" d="M15.7575 17.068C14.9844 17.5643 14.1081 17.8775 13.1956 17.9836C12.283 18.0898 11.3582 17.9861 10.4918 17.6805C9.62543 17.3749 8.84026 16.8755 8.19621 16.2203C7.55216 15.5651 7.06626 14.7715 6.77555 13.9L3.43555 16.49C4.26748 18.1466 5.54369 19.5393 7.12155 20.5123C8.69942 21.4853 10.5168 22.0004 12.3705 22C14.8048 22.066 17.1723 21.1992 18.9885 19.577L15.7575 17.068Z" fill="#FFFFFE"/>
<path opacity="0.25" d="M21.791 10.182H12.373V14.05H17.755C17.6436 14.6619 17.4093 15.2448 17.0662 15.7635C16.7232 16.2822 16.2785 16.726 15.759 17.068L18.991 19.578C19.9752 18.6301 20.7493 17.486 21.263 16.2198C21.7767 14.9537 22.0186 13.5937 21.973 12.228C21.973 11.541 21.913 10.857 21.791 10.182Z" fill="#FFFFFE"/>
</svg>
