<svg width="191" height="415" viewBox="0 0 191 415" fill="none" xmlns="http://www.w3.org/2000/svg">
<path d="M24.5 0.5V254.5" stroke="#100F0F" stroke-dasharray="15 15"/>
<path d="M25.0007 274.917L8.33398 264.5H41.6673L25.0007 274.917Z" fill="#0F7454"/>
<path d="M41.6667 262.417H8.33333C7.18274 262.417 6.25 263.349 6.25 264.5V289.5C6.25 290.651 7.18274 291.583 8.33333 291.583H41.6667C42.8173 291.583 43.75 290.651 43.75 289.5V264.5C43.75 263.349 42.8173 262.417 41.6667 262.417Z" stroke="#100F0F" stroke-width="2" stroke-linecap="round"/>
<path d="M6.25 265.542L25 277L43.75 265.542" stroke="#100F0F" stroke-width="2" stroke-linecap="round"/>
<path d="M166 0V160" stroke="#100F0F" stroke-dasharray="15 15"/>
<path d="M166.001 176.917L149.334 166.5H182.667L166.001 176.917Z" fill="#0F7454"/>
<path d="M182.667 164.417H149.333C148.183 164.417 147.25 165.349 147.25 166.5V191.5C147.25 192.651 148.183 193.583 149.333 193.583H182.667C183.817 193.583 184.75 192.651 184.75 191.5V166.5C184.75 165.349 183.817 164.417 182.667 164.417Z" stroke="#100F0F" stroke-width="2" stroke-linecap="round"/>
<path d="M147.25 167.542L166 179L184.75 167.542" stroke="#100F0F" stroke-width="2" stroke-linecap="round"/>
<path d="M95 0V371.5" stroke="#100F0F" stroke-dasharray="15 15"/>
<path d="M95.0007 387.917L78.334 377.5H111.667L95.0007 387.917Z" fill="#0F7454"/>
<path d="M111.667 375.417H78.3333C77.1827 375.417 76.25 376.349 76.25 377.5V402.5C76.25 403.651 77.1827 404.583 78.3333 404.583H111.667C112.817 404.583 113.75 403.651 113.75 402.5V377.5C113.75 376.349 112.817 375.417 111.667 375.417Z" stroke="#100F0F" stroke-width="2" stroke-linecap="round"/>
<path d="M76.25 378.542L95 390L113.75 378.542" stroke="#100F0F" stroke-width="2" stroke-linecap="round"/>
</svg>
