<svg width="286" height="311" viewBox="0 0 286 311" fill="none" xmlns="http://www.w3.org/2000/svg">
<path d="M49.2064 223.448L65.0537 211.823L31.8124 214.298L49.2064 223.448Z" fill="#0F7454"/>
<path d="M31.6576 212.22L64.899 209.745C66.0464 209.66 67.0458 210.521 67.1312 211.668L68.9872 236.599C69.0726 237.747 68.2117 238.746 67.0643 238.831L33.8229 241.306C32.6755 241.391 31.6761 240.531 31.5907 239.383L29.7347 214.452C29.6493 213.305 30.5102 212.305 31.6576 212.22Z" stroke="#100F0F" stroke-width="2" stroke-linecap="round"/>
<path d="M67.2085 212.707L49.3609 225.526L29.812 215.491" stroke="#100F0F" stroke-width="2" stroke-linecap="round"/>
<path d="M347.027 58.8662C275.096 71.9561 242.151 87.7889 225.52 164.493C194.533 233.528 151.023 230.058 72.6055 222.559" stroke="black" stroke-dasharray="15 15"/>
</svg>
