<svg width="286" height="311" viewBox="0 0 286 311" fill="none" xmlns="http://www.w3.org/2000/svg">
<path d="M49.2073 223.448L65.0547 211.823L31.8133 214.298L49.2073 223.448Z" fill="#990012"/>
<path d="M31.6596 212.22L64.9009 209.745C66.0483 209.66 67.0478 210.521 67.1332 211.668L68.9891 236.599C69.0746 237.747 68.2136 238.746 67.0662 238.832L33.8249 241.306C32.6774 241.392 31.678 240.531 31.5926 239.383L29.7367 214.452C29.6512 213.305 30.5122 212.306 31.6596 212.22Z" stroke="#100F0F" stroke-width="2" stroke-linecap="round"/>
<path d="M67.2109 212.707L49.3633 225.526L29.8144 215.491" stroke="#100F0F" stroke-width="2" stroke-linecap="round"/>
<path d="M347.029 58.8662C275.098 71.9561 242.153 87.7889 225.522 164.493C194.535 233.528 151.025 230.058 72.6074 222.559" stroke="black" stroke-dasharray="15 15"/>
</svg>
