<svg width="130" height="130" viewBox="0 0 130 130" fill="none" xmlns="http://www.w3.org/2000/svg">
<path d="M26 52V39C26 28.6566 30.1089 18.7368 37.4228 11.4228C44.7368 4.10892 54.6566 0 65 0C75.3434 0 85.2632 4.10892 92.5772 11.4228C99.8911 18.7368 104 28.6566 104 39V52H110.5C113.948 52 117.254 53.3696 119.692 55.8076C122.13 58.2456 123.5 61.5522 123.5 65V117C123.5 120.448 122.13 123.754 119.692 126.192C117.254 128.63 113.948 130 110.5 130H19.5C16.0522 130 12.7456 128.63 10.3076 126.192C7.86964 123.754 6.5 120.448 6.5 117V65C6.5 57.85 12.35 52 19.5 52H26ZM58.5 95.745V110.5H71.5V95.745C73.9783 94.3141 75.9153 92.1055 77.0104 89.4616C78.1056 86.8176 78.2977 83.8863 77.557 81.122C76.8164 78.3578 75.1843 75.9152 72.9139 74.1731C70.6435 72.431 67.8617 71.4867 65 71.4867C62.1383 71.4867 59.3565 72.431 57.0861 74.1731C54.8157 75.9152 53.1836 78.3578 52.443 81.122C51.7023 83.8863 51.8944 86.8176 52.9896 89.4616C54.0847 92.1055 56.0217 94.3141 58.5 95.745ZM45.5 39V52H84.5V39C84.5 33.8283 82.4455 28.8684 78.7886 25.2114C75.1316 21.5545 70.1717 19.5 65 19.5C59.8283 19.5 54.8684 21.5545 51.2114 25.2114C47.5545 28.8684 45.5 33.8283 45.5 39Z" fill="url(#paint0_linear_131_3209)"/>
<defs>
<linearGradient id="paint0_linear_131_3209" x1="65" y1="0" x2="65" y2="130" gradientUnits="userSpaceOnUse">
<stop stop-color="#6B000C"/>
<stop offset="0.525" stop-color="#87000F"/>
<stop offset="1" stop-color="#D10017"/>
</linearGradient>
</defs>
</svg>
