<svg width="18" height="19" viewBox="0 0 18 19" fill="none" xmlns="http://www.w3.org/2000/svg">
<path d="M7.22222 13.7131V15.7131C7.22222 16.2436 7.40952 16.7523 7.74292 17.1273C8.07632 17.5024 8.5285 17.7131 9 17.7131H15.2222C15.6937 17.7131 16.1459 17.5024 16.4793 17.1273C16.8127 16.7523 17 16.2436 17 15.7131V3.71313C17 3.1827 16.8127 2.67399 16.4793 2.29892C16.1459 1.92385 15.6937 1.71313 15.2222 1.71313H9C8.5285 1.71313 8.07632 1.92385 7.74292 2.29892C7.40952 2.67399 7.22222 3.1827 7.22222 3.71313V5.71313" stroke="#FFFFFE" stroke-width="2" stroke-linecap="round" stroke-linejoin="round"/>
<path d="M11.6666 9.71313L0.999959 9.71313M0.999959 9.71313L3.66663 12.7131M0.999959 9.71313L3.66663 6.71313" stroke="#FFFFFE" stroke-width="2" stroke-linecap="round" stroke-linejoin="round"/>
</svg>
