<svg width="22" height="23" viewBox="0 0 22 23" fill="none" xmlns="http://www.w3.org/2000/svg">
<path d="M8.77778 16.5V19C8.77778 19.663 9.0119 20.2989 9.42865 20.7678C9.8454 21.2366 10.4106 21.5 11 21.5H18.7778C19.3671 21.5 19.9324 21.2366 20.3491 20.7678C20.7659 20.2989 21 19.663 21 19L21 4C21 3.33696 20.7659 2.70107 20.3491 2.23223C19.9324 1.76339 19.3671 1.5 18.7778 1.5H11C10.4106 1.5 9.8454 1.76339 9.42865 2.23223C9.0119 2.70107 8.77778 3.33696 8.77778 4V6.5" stroke="#253237" stroke-width="2" stroke-linecap="round" stroke-linejoin="round"/>
<path d="M14.3333 11.5L0.999919 11.5M0.999919 11.5L4.33325 15.25M0.999919 11.5L4.33325 7.75" stroke="#253237" stroke-width="2" stroke-linecap="round" stroke-linejoin="round"/>
</svg>
