<svg width="89" height="110" viewBox="0 0 89 110" fill="none" xmlns="http://www.w3.org/2000/svg">
<g filter="url(#filter0_d_55_4348)">
<path d="M33.9 62.7C33.1025 62.7 32.42 62.4163 31.8526 61.8488C31.2852 61.2814 31.001 60.5985 31 59.8V42.4C31 41.6025 31.2842 40.92 31.8526 40.3526C32.421 39.7852 33.1035 39.501 33.9 39.5H57.1C57.8975 39.5 58.5804 39.7842 59.1488 40.3526C59.7172 40.921 60.001 41.6035 60 42.4V59.8C60 60.5975 59.7163 61.2804 59.1488 61.8488C58.5814 62.4172 57.8985 62.701 57.1 62.7H33.9ZM45.5 52.55L33.9 45.3V59.8H57.1V45.3L45.5 52.55ZM45.5 49.65L57.1 42.4H33.9L45.5 49.65ZM33.9 45.3V42.4V59.8V45.3Z" fill="#253237"/>
<path d="M11 39.5V27.5L44.5 8L78.5 27.5V39.5" stroke="#0F7454" stroke-width="13"/>
<path d="M11 62.5V74.5L44.5 94L78.5 74.5V62.5" stroke="#0F7454" stroke-width="13"/>
</g>
<defs>
<filter id="filter0_d_55_4348" x="0.5" y="0.493019" width="88.5" height="109.014" filterUnits="userSpaceOnUse" color-interpolation-filters="sRGB">
<feFlood flood-opacity="0" result="BackgroundImageFix"/>
<feColorMatrix in="SourceAlpha" type="matrix" values="0 0 0 0 0 0 0 0 0 0 0 0 0 0 0 0 0 0 127 0" result="hardAlpha"/>
<feOffset dy="4"/>
<feGaussianBlur stdDeviation="2"/>
<feComposite in2="hardAlpha" operator="out"/>
<feColorMatrix type="matrix" values="0 0 0 0 0 0 0 0 0 0 0 0 0 0 0 0 0 0 0.25 0"/>
<feBlend mode="normal" in2="BackgroundImageFix" result="effect1_dropShadow_55_4348"/>
<feBlend mode="normal" in="SourceGraphic" in2="effect1_dropShadow_55_4348" result="shape"/>
</filter>
</defs>
</svg>
