<svg width="24" height="25" viewBox="0 0 24 25" fill="none" xmlns="http://www.w3.org/2000/svg">
<path fill-rule="evenodd" clip-rule="evenodd" d="M3.60001 6.65337C3.60001 5.99063 4.13726 5.45337 4.80001 5.45337H19.2C19.8627 5.45337 20.4 5.99063 20.4 6.65337C20.4 7.31611 19.8627 7.85337 19.2 7.85337H4.80001C4.13726 7.85337 3.60001 7.31611 3.60001 6.65337Z" fill="#0F7454"/>
<path fill-rule="evenodd" clip-rule="evenodd" d="M3.60001 12.6534C3.60001 11.9906 4.13726 11.4534 4.80001 11.4534H19.2C19.8627 11.4534 20.4 11.9906 20.4 12.6534C20.4 13.3161 19.8627 13.8534 19.2 13.8534H4.80001C4.13726 13.8534 3.60001 13.3161 3.60001 12.6534Z" fill="#0F7454"/>
<path fill-rule="evenodd" clip-rule="evenodd" d="M3.60001 18.6534C3.60001 17.9906 4.13726 17.4534 4.80001 17.4534H19.2C19.8627 17.4534 20.4 17.9906 20.4 18.6534C20.4 19.3161 19.8627 19.8534 19.2 19.8534H4.80001C4.13726 19.8534 3.60001 19.3161 3.60001 18.6534Z" fill="#0F7454"/>
</svg>
