<svg width="54" height="54" viewBox="0 0 54 54" fill="none" xmlns="http://www.w3.org/2000/svg">
<path d="M0.75 27C0.75 32.1918 2.28954 37.2669 5.17392 41.5837C8.05831 45.9005 12.158 49.265 16.9546 51.2518C21.7511 53.2386 27.0291 53.7585 32.1211 52.7456C37.2131 51.7327 41.8904 49.2327 45.5616 45.5616C49.2327 41.8904 51.7327 37.2131 52.7456 32.1211C53.7585 27.0291 53.2386 21.7511 51.2518 16.9546C49.265 12.158 45.9005 8.05831 41.5837 5.17392C37.2669 2.28954 32.1918 0.75 27 0.75C20.0381 0.75 13.3613 3.51562 8.43845 8.43845C3.51562 13.3613 0.75 20.0381 0.75 27ZM12 25.125H34.7812L24.3187 14.6119L27 12L42 27L27 42L24.3187 39.3244L34.7812 28.875H12V25.125Z" fill="#0F7454"/>
</svg>
