<svg width="54" height="54" viewBox="0 0 54 54" fill="none" xmlns="http://www.w3.org/2000/svg">
<path d="M53.25 27C53.25 32.1918 51.7105 37.2669 48.8261 41.5837C45.9417 45.9005 41.842 49.265 37.0454 51.2518C32.2489 53.2386 26.9709 53.7585 21.8789 52.7456C16.7869 51.7327 12.1096 49.2327 8.43845 45.5616C4.76732 41.8904 2.26725 37.2131 1.25439 32.1211C0.241524 27.0291 0.761364 21.7511 2.74817 16.9546C4.73496 12.158 8.09949 8.05831 12.4163 5.17392C16.7331 2.28954 21.8082 0.75 27 0.75C33.9619 0.75 40.6387 3.51562 45.5616 8.43845C50.4844 13.3613 53.25 20.0381 53.25 27ZM42 25.125H19.2188L29.6813 14.6119L27 12L12 27L27 42L29.6813 39.3244L19.2188 28.875H42V25.125Z" fill="#0F7454"/>
</svg>
