<svg width="21" height="21" viewBox="0 0 21 21" fill="none" xmlns="http://www.w3.org/2000/svg">
<path fill-rule="evenodd" clip-rule="evenodd" d="M13.8332 7.99999C13.8332 8.88404 13.482 9.73189 12.8569 10.357C12.2317 10.9821 11.3839 11.3333 10.4998 11.3333C9.61578 11.3333 8.76794 10.9821 8.14281 10.357C7.51769 9.73189 7.1665 8.88404 7.1665 7.99999C7.1665 7.11593 7.51769 6.26809 8.14281 5.64297C8.76794 5.01785 9.61578 4.66666 10.4998 4.66666C11.3839 4.66666 12.2317 5.01785 12.8569 5.64297C13.482 6.26809 13.8332 7.11593 13.8332 7.99999ZM12.1665 7.99999C12.1665 8.44202 11.9909 8.86594 11.6783 9.1785C11.3658 9.49106 10.9419 9.66666 10.4998 9.66666C10.0578 9.66666 9.63389 9.49106 9.32133 9.1785C9.00877 8.86594 8.83317 8.44202 8.83317 7.99999C8.83317 7.55796 9.00877 7.13404 9.32133 6.82148C9.63389 6.50892 10.0578 6.33332 10.4998 6.33332C10.9419 6.33332 11.3658 6.50892 11.6783 6.82148C11.9909 7.13404 12.1665 7.55796 12.1665 7.99999Z" fill="#253237"/>
<path fill-rule="evenodd" clip-rule="evenodd" d="M10.4999 1.33333C5.43742 1.33333 1.33325 5.4375 1.33325 10.5C1.33325 15.5625 5.43742 19.6667 10.4999 19.6667C15.5624 19.6667 19.6666 15.5625 19.6666 10.5C19.6666 5.4375 15.5624 1.33333 10.4999 1.33333ZM2.99992 10.5C2.99992 12.2417 3.59409 13.845 4.58992 15.1183C5.28928 14.1999 6.1915 13.4556 7.22611 12.9436C8.26072 12.4316 9.39971 12.1657 10.5541 12.1667C11.6935 12.1656 12.8182 12.4246 13.8424 12.924C14.8665 13.4234 15.7632 14.1499 16.4641 15.0483C17.1861 14.1013 17.6723 12.996 17.8823 11.8238C18.0924 10.6516 18.0203 9.44627 17.672 8.30748C17.3237 7.16869 16.7093 6.1292 15.8795 5.27503C15.0497 4.42085 14.0285 3.77654 12.9002 3.39542C11.772 3.01429 10.5693 2.9073 9.39147 3.08331C8.21369 3.25931 7.09474 3.71324 6.12723 4.40754C5.15971 5.10184 4.37143 6.01655 3.82761 7.07599C3.28379 8.13543 3.00007 9.30914 2.99992 10.5ZM10.4999 18C8.77821 18.0026 7.10847 17.4103 5.77325 16.3233C6.31069 15.5539 7.02603 14.9258 7.85841 14.4922C8.69079 14.0587 9.61558 13.8327 10.5541 13.8333C11.4809 13.8326 12.3945 14.053 13.219 14.4762C14.0436 14.8994 14.7552 15.5132 15.2949 16.2667C13.9493 17.3889 12.2521 18.0025 10.4999 18Z" fill="#253237"/>
</svg>
