<svg width="24" height="24" viewBox="0 0 24 24" fill="none" xmlns="http://www.w3.org/2000/svg">
<path d="M3.99414 17.2069V19.4998C3.99414 19.6325 4.04682 19.7596 4.14059 19.8534C4.23436 19.9472 4.36153 19.9998 4.49414 19.9998H6.79214C6.92449 19.9998 7.05143 19.9473 7.14514 19.8538L16.5931 10.4058L13.5931 7.40585L4.14114 16.8538C4.04731 16.9474 3.99443 17.0744 3.99414 17.2069ZM14.8311 6.16685L17.8311 9.16685L19.2911 7.70685C19.4786 7.51932 19.5839 7.26501 19.5839 6.99985C19.5839 6.73468 19.4786 6.48038 19.2911 6.29285L17.7061 4.70685C17.5186 4.51938 17.2643 4.41406 16.9991 4.41406C16.734 4.41406 16.4797 4.51938 16.2921 4.70685L14.8311 6.16685Z" fill="#FFFFFE"/>
</svg>
