<svg width="39" height="38" viewBox="0 0 39 38" fill="none" xmlns="http://www.w3.org/2000/svg">
<path d="M27.9629 5.69153C27.365 5.09361 26.5625 4.76318 25.7285 4.76318H8.15281C6.40625 4.76318 5.00586 6.17931 5.00586 7.91014V29.9388C5.00586 31.6696 6.42199 33.0858 8.15281 33.0858H30.1815C31.9123 33.0858 33.3284 31.6696 33.3284 29.9388V12.3631C33.3284 11.5291 32.998 10.7267 32.4001 10.1445L27.9629 5.69153ZM19.1671 29.9388C16.5552 29.9388 14.4467 27.8304 14.4467 25.2184C14.4467 22.6064 16.5552 20.498 19.1671 20.498C21.7791 20.498 23.8876 22.6064 23.8876 25.2184C23.8876 27.8304 21.7791 29.9388 19.1671 29.9388ZM20.7406 14.204H11.2998C9.56894 14.204 8.15281 12.7879 8.15281 11.0571C8.15281 9.32627 9.56894 7.91014 11.2998 7.91014H20.7406C22.4715 7.91014 23.8876 9.32627 23.8876 11.0571C23.8876 12.7879 22.4715 14.204 20.7406 14.204Z" fill="white"/>
</svg>
