<svg width="20" height="20" viewBox="0 0 20 20" fill="none" xmlns="http://www.w3.org/2000/svg">
<path d="M8.01367 0.953125C3.59537 0.953125 0.0136719 4.53513 0.0136719 8.95314C0.0136719 13.3712 3.59537 16.9532 8.01367 16.9532C9.85037 16.9532 11.5913 16.3222 12.9416 15.2822L17.2949 19.6722C17.6855 20.0622 18.3419 20.0622 18.7325 19.6722C19.123 19.2812 19.123 18.6252 18.7325 18.2342L14.349 13.8741C15.3898 12.5241 16.0137 10.7901 16.0137 8.95314C16.0137 4.53513 12.432 0.953125 8.01367 0.953125ZM8.01367 2.95313C11.3274 2.95313 14.0137 5.63914 14.0137 8.95314C14.0137 12.2672 11.3274 14.9532 8.01367 14.9532C4.69997 14.9532 2.01367 12.2672 2.01367 8.95314C2.01367 5.63914 4.69997 2.95313 8.01367 2.95313Z" fill="#3A8B5A"/>
</svg>
