<svg width="221" height="117" viewBox="0 0 221 117" fill="none" xmlns="http://www.w3.org/2000/svg">
<path d="M190.613 0.598145H30.581C27.2899 0.598145 24.4102 3.47882 24.4102 6.77101V110.064C24.4102 113.356 27.2899 112.121 30.581 112.121H190.201C193.492 112.121 196.372 113.356 196.372 110.064V6.77101C196.783 3.47882 193.904 0.598145 190.613 0.598145Z" fill="#253237"/>
<path d="M185.235 6.60107H36.3053C33.2425 6.60107 30.5625 9.17997 30.5625 12.1273V104.599C30.5625 107.546 33.2425 106.441 36.3053 106.441H184.852C187.915 106.441 190.595 107.546 190.595 104.599V12.1273C190.978 9.17997 188.298 6.60107 185.235 6.60107Z" fill="#459A7D"/>
<path d="M220.644 106.36V109.652C220.644 113.356 217.353 116.648 213.651 116.648H7.54347C3.84094 116.648 0.549805 113.356 0.549805 109.652V106.36H220.644Z" fill="#0F7454"/>
<path d="M129.727 106.36V107.594C129.727 109.652 128.081 111.71 125.613 111.71H95.1696C93.1126 111.71 91.0557 110.064 91.0557 107.594V106.36H129.727Z" fill="#253237"/>
<path d="M126.847 54.5083H113.271V40.928C113.271 39.2819 112.037 38.0474 110.391 38.0474C108.746 38.0474 107.511 39.2819 107.511 40.928V54.5083H93.9354C92.2898 54.5083 91.0557 55.7429 91.0557 57.389C91.0557 59.0351 92.2898 60.2697 93.9354 60.2697H107.511V73.85C107.511 75.4961 108.746 76.7307 110.391 76.7307C112.037 76.7307 113.271 75.4961 113.271 73.85V60.2697H126.847C128.492 60.2697 129.727 59.0351 129.727 57.389C129.727 55.7429 128.492 54.5083 126.847 54.5083Z" fill="#CCF1FE"/>
</svg>
