<svg width="170" height="179" viewBox="0 0 170 179" fill="none" xmlns="http://www.w3.org/2000/svg">
<g filter="url(#filter0_d_25_5256)">
<path d="M117.243 101.078L71.7322 125.715C69.1015 127.124 65.8376 126.171 64.4004 123.534L40.8804 79.9566C39.4738 77.3233 40.4259 74.0555 43.0601 72.6161L88.5711 47.9794C91.2019 46.5706 94.4658 47.523 95.903 50.1598L119.454 93.7409C120.86 96.3743 119.874 99.6692 117.243 101.078Z" fill="url(#paint0_linear_25_5256)"/>
</g>
<path d="M111.203 95.916L71.1881 117.575C70.0679 118.193 68.6633 117.758 68.0464 116.637L48.6006 80.6021C47.9837 79.4807 48.4189 78.0745 49.5391 77.4566L89.5543 55.7973C90.6745 55.1794 92.0792 55.6148 92.6961 56.7361L112.142 92.7705C112.759 93.8919 112.324 95.2981 111.203 95.916Z" fill="#3A8B5A"/>
<path d="M84.6354 92.6724L70.0252 100.576L72.8425 88.3536L84.6354 92.6724Z" fill="#459A7D"/>
<path d="M96.7128 86.1265L75.6834 97.5231L79.7495 79.9305L96.7128 86.1265Z" fill="#253237"/>
<path d="M67.5897 86.6525C69.3101 86.8445 70.8605 85.604 71.0527 83.8817C71.245 82.1594 70.0062 80.6075 68.2859 80.4155C66.5655 80.2235 65.0151 81.4641 64.8228 83.1864C64.6306 84.9087 65.8694 86.4605 67.5897 86.6525Z" fill="#459A7D"/>
<g filter="url(#filter1_d_25_5256)">
<path d="M122.232 110.461L70.491 111.485C67.5071 111.53 65.0434 109.187 64.9754 106.185L64.0577 56.6735C64.0153 53.6884 66.36 51.2211 69.3609 51.1499L121.102 50.1265C124.086 50.0809 126.55 52.424 126.618 55.4262L127.561 104.955C127.604 107.94 125.216 110.416 122.232 110.461Z" fill="url(#paint1_linear_25_5256)"/>
</g>
<path d="M119.231 103.102L73.7392 104C72.4604 104.036 71.4118 103.005 71.3778 101.725L70.6216 60.7856C70.5876 59.5063 71.6192 58.4561 72.8981 58.4208L118.39 57.5229C119.669 57.4876 120.718 58.5186 120.752 59.7979L121.508 100.738C121.542 102.017 120.51 103.067 119.231 103.102Z" fill="#3A8B5A"/>
<path d="M97.1086 88.0366L80.5009 88.3601L88.6093 78.7908L97.1086 88.0366Z" fill="#459A7D"/>
<path d="M110.843 87.7582L86.9294 88.2424L98.6102 74.4732L110.843 87.7582Z" fill="#253237"/>
<path d="M84.7227 74.8709C86.1635 75.8304 88.1102 75.439 89.0708 73.9966C90.0314 72.5542 89.6422 70.6071 88.2015 69.6475C86.7607 68.688 84.814 69.0794 83.8534 70.5218C82.8928 71.9642 83.282 73.9113 84.7227 74.8709Z" fill="#459A7D"/>
<path d="M122.759 112.299L111.784 115.684L120.525 128.611L113.402 133.428L104.661 120.5L97.4319 129.425L91.1861 92.8967L122.759 112.299Z" fill="#CCF1FE"/>
<defs>
<filter id="filter0_d_25_5256" x="5.61594" y="30.0213" width="149.094" height="148.268" filterUnits="userSpaceOnUse" color-interpolation-filters="sRGB">
<feFlood flood-opacity="0" result="BackgroundImageFix"/>
<feColorMatrix in="SourceAlpha" type="matrix" values="0 0 0 0 0 0 0 0 0 0 0 0 0 0 0 0 0 0 127 0" result="hardAlpha"/>
<feOffset dy="17.3082"/>
<feGaussianBlur stdDeviation="17.3082"/>
<feColorMatrix type="matrix" values="0 0 0 0 0 0 0 0 0 0 0 0 0 0 0 0 0 0 0.27 0"/>
<feBlend mode="normal" in2="BackgroundImageFix" result="effect1_dropShadow_25_5256"/>
<feBlend mode="normal" in="SourceGraphic" in2="effect1_dropShadow_25_5256" result="shape"/>
</filter>
<filter id="filter1_d_25_5256" x="29.4411" y="32.8177" width="132.737" height="130.592" filterUnits="userSpaceOnUse" color-interpolation-filters="sRGB">
<feFlood flood-opacity="0" result="BackgroundImageFix"/>
<feColorMatrix in="SourceAlpha" type="matrix" values="0 0 0 0 0 0 0 0 0 0 0 0 0 0 0 0 0 0 127 0" result="hardAlpha"/>
<feOffset dy="17.3082"/>
<feGaussianBlur stdDeviation="17.3082"/>
<feColorMatrix type="matrix" values="0 0 0 0 0 0 0 0 0 0 0 0 0 0 0 0 0 0 0.27 0"/>
<feBlend mode="normal" in2="BackgroundImageFix" result="effect1_dropShadow_25_5256"/>
<feBlend mode="normal" in="SourceGraphic" in2="effect1_dropShadow_25_5256" result="shape"/>
</filter>
<linearGradient id="paint0_linear_25_5256" x1="84.6573" y1="46.5719" x2="75.6666" y2="127.125" gradientUnits="userSpaceOnUse">
<stop stop-color="#BCE8A4"/>
<stop offset="0.285" stop-color="#ABDFA7"/>
<stop offset="0.665" stop-color="#80C9AE"/>
<stop offset="1" stop-color="#5CB7B3"/>
</linearGradient>
<linearGradient id="paint1_linear_25_5256" x1="118.27" y1="47.0809" x2="73.3408" y2="114.542" gradientUnits="userSpaceOnUse">
<stop stop-color="#BCE8A4"/>
<stop offset="0.285" stop-color="#ABDFA7"/>
<stop offset="0.665" stop-color="#80C9AE"/>
<stop offset="1" stop-color="#5CB7B3"/>
</linearGradient>
</defs>
</svg>
