<svg width="335" height="305" viewBox="0 0 335 305" fill="none" xmlns="http://www.w3.org/2000/svg">
<g filter="url(#filter0_d_25_5270)">
<path d="M177.338 106.918L205.188 138.05C206.124 139.127 205.837 140.864 204.601 141.969L169.328 173.516C168.092 174.621 166.315 174.644 165.421 173.615L130.192 133.073C129.256 131.995 129.543 130.259 130.779 129.154L156.335 106.297L177.338 106.918Z" fill="#0F7454"/>
</g>
<path d="M155.085 104.943L163.086 114.394C164.21 115.721 166.277 115.794 167.604 114.67L175.993 107.568" fill="#253237"/>
<g clip-path="url(#clip0_25_5270)">
<path d="M147.469 112.215L145.429 113.942L146.616 115.345L148.656 113.618L147.469 112.215Z" fill="#253237"/>
<path d="M150.716 111.873L148.676 113.601L149.863 115.003L151.903 113.276L150.716 111.873Z" fill="#253237"/>
<path d="M149.826 115L147.786 116.728L148.973 118.13L151.013 116.403L149.826 115Z" fill="#253237"/>
<path d="M153.073 114.659L151.033 116.386L152.22 117.788L154.26 116.061L153.073 114.659Z" fill="#253237"/>
<path d="M152.202 117.805L150.162 119.532L151.349 120.934L153.389 119.207L152.202 117.805Z" fill="#253237"/>
<path d="M155.449 117.463L153.409 119.19L154.596 120.592L156.636 118.865L155.449 117.463Z" fill="#253237"/>
<path d="M154.559 120.589L152.52 122.316L153.707 123.718L155.747 121.991L154.559 120.589Z" fill="#253237"/>
<path d="M157.806 120.248L155.766 121.975L156.953 123.377L158.993 121.65L157.806 120.248Z" fill="#253237"/>
<path d="M156.933 123.394L154.894 125.121L156.081 126.523L158.121 124.796L156.933 123.394Z" fill="#253237"/>
<path d="M160.18 123.052L158.14 124.779L159.327 126.182L161.367 124.454L160.18 123.052Z" fill="#253237"/>
<path d="M159.29 126.179L157.25 127.906L158.437 129.308L160.477 127.581L159.29 126.179Z" fill="#253237"/>
<path d="M162.537 125.836L160.497 127.563L161.684 128.966L163.724 127.239L162.537 125.836Z" fill="#253237"/>
<path d="M161.666 128.983L159.626 130.71L160.813 132.112L162.853 130.385L161.666 128.983Z" fill="#253237"/>
<path d="M164.895 128.622L162.855 130.349L164.043 131.751L166.083 130.024L164.895 128.622Z" fill="#253237"/>
<path d="M164.023 131.768L161.983 133.495L163.171 134.897L165.211 133.17L164.023 131.768Z" fill="#253237"/>
<path d="M167.269 131.426L165.229 133.153L166.417 134.555L168.457 132.828L167.269 131.426Z" fill="#253237"/>
<path d="M164.357 136.299L169.909 142.856L174.008 139.385L168.457 132.828L164.357 136.299ZM172.876 139.293L170.004 141.724L168.399 139.828L171.271 137.397L172.876 139.293Z" fill="#253237"/>
<path d="M173.619 156.998L173.518 153.626C173.531 153.039 173.531 152.597 173.561 152.03L173.544 152.01L171.306 153.905L170.252 152.661L174.431 149.123L175.234 150.071L175.331 153.277C175.338 153.848 175.348 154.382 175.285 154.91L175.302 154.93L177.758 152.85L178.828 154.114L174.371 157.887L173.619 156.998Z" fill="#253237"/>
<path d="M176.198 145.186C176.566 145.62 176.53 146.261 176.015 146.697C175.52 147.116 174.882 147.045 174.515 146.611C174.11 146.173 174.146 145.533 174.661 145.097C175.192 144.681 175.813 144.731 176.198 145.186ZM180.075 153.058L175.778 147.982L177.362 146.641L181.659 151.717L180.075 153.058Z" fill="#253237"/>
<path d="M180.068 147.266C179.5 146.595 178.995 146.039 178.591 145.601L179.957 144.444L180.638 145.088L180.658 145.072C180.583 144.22 180.906 143.437 181.659 142.8C182.768 141.861 184.598 141.974 185.969 143.593C187.54 145.45 187.108 147.308 185.959 148.28C185.345 148.8 184.652 148.946 184.147 148.831L184.127 148.848L186.268 151.376L184.683 152.717L180.068 147.266ZM182.673 147.13C182.773 147.248 182.893 147.35 182.996 147.432C183.463 147.783 184.107 147.78 184.563 147.394C185.256 146.807 185.167 145.899 184.431 145.03C183.746 144.221 182.871 143.91 182.158 144.514C181.702 144.899 181.591 145.571 181.893 146.128C181.94 146.224 182.004 146.34 182.087 146.438L182.673 147.13Z" fill="#253237"/>
</g>
<defs>
<filter id="filter0_d_25_5270" x="95.0212" y="88.9891" width="145.337" height="137.302" filterUnits="userSpaceOnUse" color-interpolation-filters="sRGB">
<feFlood flood-opacity="0" result="BackgroundImageFix"/>
<feColorMatrix in="SourceAlpha" type="matrix" values="0 0 0 0 0 0 0 0 0 0 0 0 0 0 0 0 0 0 127 0" result="hardAlpha"/>
<feOffset dy="17.3082"/>
<feGaussianBlur stdDeviation="17.3082"/>
<feColorMatrix type="matrix" values="0 0 0 0 0 0 0 0 0 0 0 0 0 0 0 0 0 0 0.27 0"/>
<feBlend mode="normal" in2="BackgroundImageFix" result="effect1_dropShadow_25_5270"/>
<feBlend mode="normal" in="SourceGraphic" in2="effect1_dropShadow_25_5270" result="shape"/>
</filter>
<clipPath id="clip0_25_5270">
<rect width="18.0872" height="53.5661" fill="white" transform="translate(140.616 118.017) rotate(-40.2525)"/>
</clipPath>
</defs>
</svg>
