<svg width="140" height="150" viewBox="0 0 140 150" fill="none" xmlns="http://www.w3.org/2000/svg">
<g filter="url(#filter0_d_25_5243)">
<path d="M104.454 60.1517L76.0754 96.8511C75.1839 98.1883 73.401 98.3369 72.0638 97.2968L36.7015 69.5122C35.3643 68.6208 35.2157 66.8378 36.2558 65.5006L73.1038 18.6976C73.9953 17.3604 75.7783 17.2118 77.1155 18.2519L102.82 38.4589L104.454 60.1517Z" fill="#0F7454"/>
</g>
<path d="M92.4188 42.4707L75.332 29.0985C75.0349 28.8013 74.8863 28.3556 75.1835 27.7612C75.4806 27.4641 75.9264 27.3155 76.5207 27.6127L93.6075 40.9849C93.9046 41.2821 94.0532 41.7278 93.7561 42.3222C93.3103 42.7679 92.8646 42.7679 92.4188 42.4707Z" fill="#253237"/>
<path d="M78.7493 38.3107L72.3604 33.1104C72.0632 32.8132 71.9146 32.3675 72.2118 31.7732C72.5089 31.3274 72.9547 31.3274 73.549 31.6246L79.938 36.8249C80.2351 37.1221 80.3837 37.5678 80.0866 38.1621C79.6408 38.6079 79.0465 38.6079 78.7493 38.3107Z" fill="#253237"/>
<path d="M102.82 38.4595L94.9453 48.4144C93.7566 49.9002 94.2024 51.9803 95.5396 53.0204L104.603 60.1523" fill="#253237"/>
<path d="M93.4584 62.3813L84.5436 55.5466L75.3316 48.2662L66.8625 41.58C65.971 40.8371 64.4852 40.9857 63.7423 42.0258L51.5587 57.4782C50.8158 58.3697 50.9643 59.8555 51.8558 60.5984L78.6004 81.6968C79.4919 82.4397 80.9777 82.2912 81.7206 81.2511L93.9042 65.7987C94.6471 64.4615 94.4985 63.2728 93.4584 62.3813ZM65.2281 62.2328L67.9026 58.6668L76.0745 65.0558L73.4 68.6217L65.2281 62.2328ZM72.6571 69.6618L70.1313 72.9306L61.9593 66.5416L64.4852 63.2728L72.6571 69.6618ZM79.6404 60.5984L76.966 64.1643L68.794 57.7753L71.4685 54.2094L79.6404 60.5984ZM72.2114 53.1693L75.183 49.6034L83.3549 55.9924L80.6805 59.5583L72.2114 53.1693ZM87.0695 72.0391L78.0061 64.9072L80.6805 61.3413L89.7439 68.4732L87.0695 72.0391ZM67.754 56.8839L58.9877 50.0491L61.6622 46.4832L70.4284 53.3179L67.754 56.8839ZM58.0962 51.0892L66.8625 57.9239L64.188 61.4899L55.4218 54.6551L58.0962 51.0892ZM77.2632 65.9473L86.3266 73.0792L83.6521 76.6451L74.5887 69.5132L77.2632 65.9473ZM92.8641 64.7586L90.6354 67.5817L81.572 60.4498L84.2464 56.8839L92.567 63.4214C93.1613 63.7186 93.1613 64.3129 92.8641 64.7586ZM65.971 42.3229L73.9944 48.7119L71.3199 52.2779L62.5536 45.4431L64.7824 42.6201C65.0795 42.1744 65.6738 42.1744 65.971 42.3229ZM52.5987 58.0725L54.5303 55.6952L63.2965 62.5299L60.7707 65.7987L52.5987 59.4097C52.3016 59.1126 52.3016 58.3697 52.5987 58.0725ZM79.4919 80.211L71.1713 73.6735L73.6972 70.4047L82.7606 77.5366L80.6805 80.0625C80.3833 80.6568 79.789 80.6568 79.4919 80.211Z" fill="#253237"/>
<defs>
<filter id="filter0_d_25_5243" x="0.956757" y="0.261093" width="138.114" height="149.643" filterUnits="userSpaceOnUse" color-interpolation-filters="sRGB">
<feFlood flood-opacity="0" result="BackgroundImageFix"/>
<feColorMatrix in="SourceAlpha" type="matrix" values="0 0 0 0 0 0 0 0 0 0 0 0 0 0 0 0 0 0 127 0" result="hardAlpha"/>
<feOffset dy="17.3082"/>
<feGaussianBlur stdDeviation="17.3082"/>
<feColorMatrix type="matrix" values="0 0 0 0 0 0 0 0 0 0 0 0 0 0 0 0 0 0 0.27 0"/>
<feBlend mode="normal" in2="BackgroundImageFix" result="effect1_dropShadow_25_5243"/>
<feBlend mode="normal" in="SourceGraphic" in2="effect1_dropShadow_25_5243" result="shape"/>
</filter>
</defs>
</svg>
